<svg width="26" height="26" viewBox="0 0 26 26" fill="none" xmlns="http://www.w3.org/2000/svg">
<g clip-path="url(#clip0_0_224)">
<path d="M10.8332 5.4166C10.8332 4.84196 11.0615 4.29086 11.4678 3.88454C11.8742 3.47821 12.4253 3.24994 12.9999 3.24994C13.5745 3.24994 14.1256 3.47821 14.5319 3.88454C14.9383 4.29086 15.1665 4.84196 15.1665 5.4166C16.4106 6.00487 17.4712 6.92061 18.2346 8.06566C18.998 9.21071 19.4353 10.5419 19.4999 11.9166V15.1666C19.5814 15.8401 19.8199 16.485 20.1962 17.0495C20.5726 17.614 21.0762 18.0823 21.6665 18.4165H4.33325C4.9236 18.0823 5.42721 17.614 5.80353 17.0495C6.17986 16.485 6.41838 15.8401 6.49991 15.1666V11.9166C6.56443 10.5419 7.00182 9.21071 7.76518 8.06566C8.52855 6.92061 9.58912 6.00487 10.8332 5.4166Z" stroke="#4A4A4A" stroke-width="1.5" stroke-linecap="round" stroke-linejoin="round"/>
<path d="M9.75006 18.4166V19.4999C9.75006 20.3618 10.0925 21.1885 10.702 21.798C11.3115 22.4075 12.1381 22.7499 13.0001 22.7499C13.862 22.7499 14.6886 22.4075 15.2981 21.798C15.9076 21.1885 16.25 20.3618 16.25 19.4999V18.4166" stroke="#4A4A4A" stroke-width="1.5" stroke-linecap="round" stroke-linejoin="round"/>
</g>
<defs>
<clipPath id="clip0_0_224">
<rect width="25.6" height="25.6" fill="white" transform="scale(1.01562)"/>
</clipPath>
</defs>
</svg>
