<svg width="70" height="70" viewBox="0 0 70 70" fill="none" xmlns="http://www.w3.org/2000/svg">
<rect width="70" height="70" rx="13.1283" fill="#FBCFFB"/>
<rect x="9.33594" y="9.33594" width="51.3333" height="51.3333" rx="8.7522" fill="white"/>
<path fill-rule="evenodd" clip-rule="evenodd" d="M32.5007 25.0051H37.5144C42.2414 25.0051 44.6049 25.0051 46.0733 26.47C47.0844 27.4785 47.3994 28.9103 47.4974 31.2435C47.5169 31.7062 47.5266 31.9376 47.4402 32.0919C47.3538 32.2463 47.0089 32.4389 46.319 32.8242C45.5529 33.252 45.035 34.0695 45.035 35.0076C45.035 35.9458 45.5529 36.7633 46.319 37.1911C47.0089 37.5764 47.3538 37.769 47.4402 37.9233C47.5266 38.0777 47.5169 38.309 47.4974 38.7717C47.3994 41.1049 47.0844 42.5367 46.0733 43.5453C44.6049 45.0101 42.2414 45.0101 37.5144 45.0101H32.5007C27.7737 45.0101 25.4102 45.0101 23.9417 43.5453C22.9306 42.5367 22.6157 41.1049 22.5176 38.7717C22.4982 38.309 22.4884 38.0777 22.5748 37.9233C22.6612 37.769 23.0062 37.5764 23.696 37.1911C24.4622 36.7633 24.9801 35.9458 24.9801 35.0076C24.9801 34.0695 24.4622 33.252 23.696 32.8242C23.0062 32.4389 22.6612 32.2463 22.5748 32.0919C22.4884 31.9376 22.4982 31.7062 22.5176 31.2435C22.6157 28.9103 22.9306 27.4785 23.9417 26.47C25.4102 25.0051 27.7737 25.0051 32.5007 25.0051ZM39.4434 30.5936C39.8106 30.9598 39.8106 31.5536 39.4434 31.9198L31.9229 39.4217C31.5557 39.7879 30.9605 39.7879 30.5934 39.4217C30.2263 39.0555 30.2263 38.4617 30.5934 38.0955L38.114 30.5936C38.4811 30.2274 39.0763 30.2274 39.4434 30.5936ZM38.152 39.3837C38.8442 39.3837 39.4054 38.824 39.4054 38.1334C39.4054 37.4429 38.8442 36.8831 38.152 36.8831C37.4597 36.8831 36.8986 37.4429 36.8986 38.1334C36.8986 38.824 37.4597 39.3837 38.152 39.3837ZM31.8849 33.1322C32.5771 33.1322 33.1383 32.5724 33.1383 31.8819C33.1383 31.1913 32.5771 30.6315 31.8849 30.6315C31.1926 30.6315 30.6314 31.1913 30.6314 31.8819C30.6314 32.5724 31.1926 33.1322 31.8849 33.1322Z" fill="#791A79"/>
</svg>
