<svg width="20" height="20" viewBox="0 0 20 20" fill="none" xmlns="http://www.w3.org/2000/svg">
<g clip-path="url(#clip0_0_151)">
<path d="M12.9167 10.8333C12.1431 10.8333 11.4013 11.1405 10.8543 11.6875C10.3073 12.2345 10 12.9764 10 13.7499V14.5833C10 15.3568 10.3073 16.0987 10.8543 16.6456C11.4013 17.1926 12.1431 17.4999 12.9167 17.4999C13.6902 17.4999 14.4321 17.1926 14.9791 16.6456C15.526 16.0987 15.8333 15.3568 15.8333 14.5833V13.0833" stroke="#616161" stroke-width="1.25" stroke-linecap="round" stroke-linejoin="round"/>
<path d="M7.08317 10.8333C7.85672 10.8333 8.59858 11.1405 9.14557 11.6875C9.69255 12.2345 9.99984 12.9764 9.99984 13.7499V14.5833C9.99984 15.3568 9.69255 16.0987 9.14557 16.6456C8.59858 17.1926 7.85672 17.4999 7.08317 17.4999C6.30962 17.4999 5.56776 17.1926 5.02078 16.6456C4.47379 16.0987 4.1665 15.3568 4.1665 14.5833V13.0833" stroke="#616161" stroke-width="1.25" stroke-linecap="round" stroke-linejoin="round"/>
<path d="M14.5832 13.3333C15.3567 13.3333 16.0986 13.026 16.6456 12.4791C17.1925 11.9321 17.4998 11.1902 17.4998 10.4167C17.4998 9.64312 17.1925 8.90125 16.6456 8.35427C16.0986 7.80729 15.3567 7.5 14.5832 7.5H14.1665" stroke="#616161" stroke-width="1.25" stroke-linecap="round" stroke-linejoin="round"/>
<path d="M15.8333 7.75V5.41667C15.8333 4.64312 15.526 3.90125 14.9791 3.35427C14.4321 2.80729 13.6902 2.5 12.9167 2.5C12.1431 2.5 11.4013 2.80729 10.8543 3.35427C10.3073 3.90125 10 4.64312 10 5.41667" stroke="#616161" stroke-width="1.25" stroke-linecap="round" stroke-linejoin="round"/>
<path d="M5.41667 13.3333C4.64312 13.3333 3.90125 13.026 3.35427 12.4791C2.80729 11.9321 2.5 11.1902 2.5 10.4167C2.5 9.64312 2.80729 8.90125 3.35427 8.35427C3.90125 7.80729 4.64312 7.5 5.41667 7.5H5.83333" stroke="#616161" stroke-width="1.25" stroke-linecap="round" stroke-linejoin="round"/>
<path d="M4.1665 7.75V5.41667C4.1665 4.64312 4.47379 3.90125 5.02078 3.35427C5.56776 2.80729 6.30962 2.5 7.08317 2.5C7.85672 2.5 8.59858 2.80729 9.14557 3.35427C9.69255 3.90125 9.99984 4.64312 9.99984 5.41667V13.75" stroke="#616161" stroke-width="1.25" stroke-linecap="round" stroke-linejoin="round"/>
</g>
<defs>
<clipPath id="clip0_0_151">
<rect width="20" height="20" fill="white"/>
</clipPath>
</defs>
</svg>
