<svg width="70" height="70" viewBox="0 0 70 70" fill="none" xmlns="http://www.w3.org/2000/svg">
<rect width="70" height="70" rx="13.1283" fill="#FBCFFB"/>
<rect x="9.33594" y="9.33594" width="51.3333" height="51.3333" rx="8.7522" fill="white"/>
<path d="M34.0695 22.5046C28.7953 22.5098 26.0664 22.6041 24.3351 24.3354C22.6039 26.0666 22.5095 28.7955 22.5044 34.0697H28.6478C28.209 33.5216 27.8811 32.8751 27.7023 32.1599C27.0293 29.468 29.4677 27.0296 32.1597 27.7026C32.8748 27.8814 33.5214 28.2093 34.0695 28.6481V22.5046Z" fill="#791A79"/>
<path d="M22.5044 35.9452C22.5095 41.2194 22.6039 43.9483 24.3351 45.6796C26.0664 47.4108 28.7953 47.5052 34.0695 47.5103V37.6627C33.0947 39.6097 31.0813 40.9465 28.7557 40.9465C28.2378 40.9465 27.8179 40.5266 27.8179 40.0087C27.8179 39.4908 28.2378 39.071 28.7557 39.071C30.6771 39.071 32.2871 37.7374 32.7105 35.9452H22.5044Z" fill="#791A79"/>
<path d="M35.945 47.5103C41.2192 47.5052 43.9481 47.4108 45.6793 45.6796C47.4106 43.9483 47.5049 41.2194 47.5101 35.9452H37.304C37.7274 37.7374 39.3373 39.071 41.2588 39.071C41.7767 39.071 42.1965 39.4908 42.1965 40.0087C42.1965 40.5266 41.7767 40.9465 41.2588 40.9465C38.9332 40.9465 36.9198 39.6097 35.945 37.6627V47.5103Z" fill="#791A79"/>
<path d="M47.5101 34.0697C47.5049 28.7955 47.4106 26.0666 45.6793 24.3354C43.9481 22.6041 41.2192 22.5098 35.945 22.5046V28.6481C36.4931 28.2093 37.1396 27.8814 37.8548 27.7026C40.5468 27.0296 42.9851 29.468 42.3121 32.1599C42.1333 32.8751 41.8055 33.5216 41.3666 34.0697H47.5101Z" fill="#791A79"/>
<path d="M31.7048 29.5221C33.0946 29.8695 34.0695 31.1182 34.0695 32.5507V34.0697H32.5505C31.1179 34.0697 29.8692 33.0948 29.5218 31.705C29.1922 30.3867 30.3864 29.1925 31.7048 29.5221Z" fill="#791A79"/>
<path d="M35.945 32.5507V34.0697H37.464C38.8965 34.0697 40.1452 33.0948 40.4927 31.705C40.8223 30.3867 39.6281 29.1925 38.3097 29.5221C36.9199 29.8695 35.945 31.1182 35.945 32.5507Z" fill="#791A79"/>
</svg>
