<svg width="70" height="70" viewBox="0 0 70 70" fill="none" xmlns="http://www.w3.org/2000/svg">
<rect width="70" height="70" rx="13.1283" fill="#FBCFFB"/>
<rect x="9.33203" y="9.33594" width="51.3333" height="51.3333" rx="8.7522" fill="white"/>
<path d="M45.1248 37.9156L45.3661 35.5474C45.4949 34.2838 45.5799 33.4495 45.5132 32.9238L45.5365 32.9239C46.6268 32.9239 47.5107 31.9909 47.5107 30.8401C47.5107 29.6892 46.6268 28.7562 45.5365 28.7562C44.4462 28.7562 43.5623 29.6892 43.5623 30.8401C43.5623 31.3606 43.7431 31.8365 44.042 32.2017C43.6129 32.4813 43.0519 33.0712 42.2074 33.9591L42.2074 33.9591C41.5568 34.6432 41.2315 34.9852 40.8686 35.0382C40.6675 35.0675 40.4627 35.0373 40.277 34.951C39.9419 34.7953 39.7185 34.3725 39.2717 33.5268L36.9165 29.0693C36.6409 28.5476 36.4101 28.111 36.2021 27.7596C37.0554 27.3001 37.6398 26.3636 37.6398 25.2831C37.6398 23.7486 36.4613 22.5046 35.0075 22.5046C33.5538 22.5046 32.3753 23.7486 32.3753 25.2831C32.3753 26.3636 32.9596 27.3001 33.8129 27.7596C33.6049 28.111 33.3742 28.5476 33.0986 29.0693L30.7434 33.5268C30.2966 34.3724 30.0731 34.7953 29.7381 34.951C29.5524 35.0373 29.3475 35.0675 29.1465 35.0382C28.7836 34.9852 28.4583 34.6432 27.8077 33.9591C26.9632 33.0712 26.4022 32.4813 25.9731 32.2017C26.272 31.8365 26.4528 31.3606 26.4528 30.8401C26.4528 29.6892 25.5689 28.7562 24.4786 28.7562C23.3883 28.7562 22.5044 29.6892 22.5044 30.8401C22.5044 31.9909 23.3883 32.9239 24.4786 32.9239L24.5019 32.9238C24.4352 33.4495 24.5202 34.2838 24.6489 35.5474L24.8903 37.9156C25.0242 39.2301 25.1356 40.4809 25.272 41.6067H44.743C44.8795 40.4809 44.9909 39.2301 45.1248 37.9156Z" fill="#791A79"/>
<path d="M33.5757 47.5109H36.4394C40.1718 47.5109 42.038 47.5109 43.2832 46.3345C43.8267 45.821 44.1708 44.8953 44.4192 43.6905H25.5959C25.8442 44.8953 26.1884 45.821 26.7319 46.3345C27.977 47.5109 29.8433 47.5109 33.5757 47.5109Z" fill="#791A79"/>
</svg>
